<svg xmlns="http://www.w3.org/2000/svg" viewBox="0 0 500 500"><defs><style>.cls-1{fill:#3e039c;}.cls-2{fill:#6d26d7;}.cls-3{fill:#5202b5;}</style></defs><title>Asset 1</title><g id="Layer_2" data-name="Layer 2"><g id="BACKGROUND"><rect class="cls-1" width="500" height="500"/><path class="cls-2" d="M500,385.5V500H386.56q-1.23-4.26-2.2-8.58a169,169,0,0,1-2.14-63c2.35-15.09,6.42-31.9-2-44.61C368.29,366,342,369.2,320.79,366.66a88.72,88.72,0,0,1-63.71-40.38C247.84,311.53,243,294,231.5,280.94c-19.78-22.5-54-25.83-83.42-20.06S91,279.73,61.39,284.33c-20.64,3.21-43.62,1.12-61.39-8.81V65.27c5.87-.49,11.76-.78,17.56-1C54,63.18,92.41,65.48,123.11,85.07,143.38,98,158.5,117.4,175.91,134c24.64,23.48,53.92,41.39,81.82,60.9C336,249.59,404.16,317.6,482,372.93,487.94,377.17,494,381.34,500,385.5Z"/><path class="cls-2" d="M409.16,273.11c-30.47,2.37-63.19.89-88.31-16.5C292.54,237,279.72,197.73,291,165.22c6.19-17.8,18.92-35.15,14.87-53.56-3-13.72-15.1-23.93-28.19-29s-27.36-6.08-41.3-7.92C208.5,71,179.88,63,159.19,43.93,146.87,32.57,138.26,16.43,136.12,0H47.76C67.22,71.18,133.68,130.84,210,130c12,0,25,1,35,10,7,6,4,15,3,22-3,24-15,47-4,71,26,57,91,46,145,55,31,5,58,26,77,54,11,15.94,22.17,30.64,34,44.72V270.67C470.11,265.25,439.46,270.76,409.16,273.11Z"/><path class="cls-3" d="M389,288c-54-9-119,2-145-55-11-24,1-47,4-71,1-7,4-16-3-22-10-9-23-10-35-10C133.68,130.84,67.22,71.18,47.76,0H0V191.73a131.76,131.76,0,0,0,16,4.83c27.09,6.3,55.42,4,83,7.67s56.69,15.14,69.79,39.68c7.27,13.63,8.77,29.84,16.53,43.21,18,31,60.65,35.08,96.44,32.92s76.42-5.35,102.55,19.19c31.74,29.82,23.08,81.68,37.22,122.87A115.21,115.21,0,0,0,443.63,500H500V386.72c-11.83-14.08-23-28.78-34-44.72C447,314,420,293,389,288Z"/><circle class="cls-2" cx="313.69" cy="429.73" r="20.07"/><circle class="cls-3" cx="65.71" cy="444" r="15"/><circle class="cls-3" cx="28.37" cy="425.33" r="9.08"/><circle class="cls-3" cx="463.75" cy="140.19" r="20.07"/><circle class="cls-3" cx="399.47" cy="95.45" r="11.79"/><circle class="cls-3" cx="240.88" cy="41.45" r="11.79"/><circle class="cls-2" cx="268.37" cy="406.8" r="9.46"/></g></g></svg>