<svg xmlns="http://www.w3.org/2000/svg" xmlns:xlink="http://www.w3.org/1999/xlink" viewBox="0 0 1425 802"><defs><style>.a{fill:none;}.b{clip-path:url(#a);}.c{fill:rgba(196,229,254,0.5);}.d{fill:#c4e5fe;}.e{fill:url(#b);}.f{fill:url(#c);}.g{fill:url(#d);}</style><clipPath id="a"><rect class="a" width="1425" height="802" rx="29" transform="translate(248 139)"/></clipPath><linearGradient id="b" x1="1.834" y1="2.304" x2="0.072" y2="-0.278" gradientUnits="objectBoundingBox"><stop offset="0" stop-color="#48bcfc" stop-opacity="0.749"/><stop offset="0.092" stop-color="#05acf9" stop-opacity="0.2"/><stop offset="0.393" stop-color="#07f" stop-opacity="0.031"/><stop offset="0.489" stop-color="#00b5f9"/><stop offset="0.586" stop-color="#2570f7"/><stop offset="0.768" stop-color="#276df7"/><stop offset="1" stop-color="#6800f3"/></linearGradient><linearGradient id="c" x1="1.788" y1="1" x2="-0.176" gradientUnits="objectBoundingBox"><stop offset="0" stop-color="#48bcfc" stop-opacity="0.749"/><stop offset="0.349" stop-color="#00b5f9"/><stop offset="0.592" stop-color="#2570f7"/><stop offset="1" stop-color="#6800f3"/></linearGradient><linearGradient id="d" x1="1" y1="1" x2="0.256" y2="-0.401" gradientUnits="objectBoundingBox"><stop offset="0" stop-color="#48bcfc" stop-opacity="0.749"/><stop offset="0.172" stop-color="#07f" stop-opacity="0.031"/><stop offset="0.292" stop-color="#00b5f9"/><stop offset="0.659" stop-color="#2570f7"/><stop offset="1" stop-color="#6800f3"/></linearGradient></defs><g class="b" transform="translate(-248 -139)"><path class="c" d="M668.667,802C691.816,734.529,766.7,648.557,989.12,660.645c329.9,17.93,311.969-297.626,311.969-297.626S1316.3,244.515,1425,248.057V773a29,29,0,0,1-29,29Z" transform="translate(248 135)"/><path class="d" d="M1068.267,802c5.086-29.187,19.382-58.5,51-80.4,35.252-24.405,52.048-9.849,65.9,4.708,22.776,23.943,37.576,47.885,113.4-101.525,29.312-57.761,74.574-70.962,126.437-57.687V773a29,29,0,0,1-29,29Z" transform="translate(248 135)"/><path class="e" d="M716.919,541.438a29,29,0,0,1,29-29h745.9c-26.074,37.6-62.31,73.706-113.03,98.621-120.943,59.411-277.568,57.31-366.684,61.554s-203.693,14.853-241.886,65.776c-15.924,21.232-35.533,52.045-53.3,95.686Z" transform="translate(-468.919 -373.438)"/><path class="f" d="M470.062,938.492s-1.022-7.884,2.935-18.434,12.748-27.694,30.332-37.8,25.057-10.99,42.2-12.748,39.123,8.792,48.355,19.781,16.265,13.571,25.5,49.206,0,45.306,0,45.306H470.062Z" transform="translate(-2 -3)"/><path class="g" d="M1150.929,287.447c-16.234-10.834-24-31.431-25.144-41.145s-7.592-44.729,41.209-70.191,46.68-19.1,65.776-33.949,48.8-78.507,112.456-93.36,93.15,36.347,93.15,36.347,12,18.287,14.287,37.717-1.714,44-16.573,62.861-44,33.716-67.433,40-39.431,2.857-66.861,12.572-26.287,8.572-54.289,26.287-30.288,24-42.86,28.573S1167.164,298.281,1150.929,287.447Z" transform="translate(0 -3)"/></g></svg>